<svg width="1269" height="857" viewBox="0 0 1269 857" fill="none" xmlns="http://www.w3.org/2000/svg">
<g opacity="0.6" filter="url(#filter0_f_1_901)">
<g style="mix-blend-mode:overlay">
<path fill-rule="evenodd" clip-rule="evenodd" d="M578.511 456.706C609.229 439.398 628.498 379.493 668.232 404.202C708.018 428.94 746.582 507.993 776.902 580.066C803.363 642.969 813.09 711.626 825.874 778.943C836.73 836.106 848.074 893.832 845.782 942.751C843.541 990.547 821.04 1008.54 813.182 1049.68C800.012 1118.63 829.883 1275.57 784.228 1265.02C737.893 1254.32 713.838 1077.22 665.527 1015.59C621.059 958.865 575.029 1016.88 534.174 946.044C495.891 879.665 494.067 783.66 486.259 704.759C478.852 629.911 472.923 551.54 490.467 504.367C507.312 459.072 548.746 473.477 578.511 456.706Z" fill="#5EA5DD"/>
</g>
<path style="mix-blend-mode:overlay" fill-rule="evenodd" clip-rule="evenodd" d="M323.238 715.715C345.945 665.868 387.783 633.102 435.145 619.544C479.93 606.725 524.756 625.843 569.351 645.265C624.369 669.226 691.722 680.99 718.009 742.738C745.65 807.661 726.128 884.329 696.692 944.374C669.192 1000.47 622.456 1044.16 566.584 1051.62C517.003 1058.24 476.871 1008.85 431.831 979.725C388.702 951.842 334.331 939.526 313.002 887.671C290.272 832.412 299.677 767.436 323.238 715.715Z" fill="url(#paint0_linear_1_901)"/>
<path fill-rule="evenodd" clip-rule="evenodd" d="M661.775 646.954C673.662 614.681 711.59 599.22 729.874 569.713C745.339 544.757 737.709 509.248 759.519 489.219C781.534 469.002 816.345 476.122 844.047 464.867C884.529 448.418 919.566 394.186 959.752 407.862C998.657 421.103 993.212 479.506 1002.71 518.864C1009.52 547.118 1011.31 575.774 1007.28 605.004C1003.84 630.012 989.65 651.532 981.149 675.574C971.494 702.87 972.445 733.71 953.738 756.377C933.007 781.504 903.153 798.042 872.012 807.848C837.054 818.857 800.325 822.651 765.083 815.79C725.184 808.021 678.2 799.862 657.537 766.092C636.751 732.122 647.582 685.483 661.775 646.954Z" fill="#F64CFA" fill-opacity="0.53"/>
<path d="M1115.56 919.443C905.682 621.567 961.102 382.933 1015.04 300.851L1338.37 867.066C1351.55 1008.64 1325.43 1217.31 1115.56 919.443Z" fill="#FF5B15" fill-opacity="0.58"/>
<g style="mix-blend-mode:overlay">
<path fill-rule="evenodd" clip-rule="evenodd" d="M569.42 547.472C623.86 504.417 691.665 513.744 745.258 558.41C808.857 611.417 873.7 691.307 848.563 780.12C823.599 868.318 732.349 876.701 655.914 874.072C583.875 871.593 503.078 851.177 480.911 767.474C458.144 681.504 507.315 596.588 569.42 547.472Z" fill="#FF9800"/>
</g>
</g>
<defs>
<filter id="filter0_f_1_901" x="0" y="0.850586" width="1641.21" height="1564.67" filterUnits="userSpaceOnUse" color-interpolation-filters="sRGB">
<feFlood flood-opacity="0" result="BackgroundImageFix"/>
<feBlend mode="normal" in="SourceGraphic" in2="BackgroundImageFix" result="shape"/>
<feGaussianBlur stdDeviation="150" result="effect1_foregroundBlur_1_901"/>
</filter>
<linearGradient id="paint0_linear_1_901" x1="490.814" y1="736.107" x2="267.062" y2="1114.64" gradientUnits="userSpaceOnUse">
<stop stop-color="#9CE4BD"/>
<stop offset="1" stop-color="#9CE4BD" stop-opacity="0"/>
</linearGradient>
</defs>
</svg>
