<svg width="1790" height="1644" viewBox="0 0 1790 1644" fill="none" xmlns="http://www.w3.org/2000/svg">
<g opacity="0.6" filter="url(#filter0_f_578_1269)">
<path fill-rule="evenodd" clip-rule="evenodd" d="M452.622 435.446C500.01 412.58 555.925 415.003 606.716 435.494C654.742 454.869 685.834 498.358 716.552 541.925C754.449 595.675 810.18 648.225 801.556 711.84C792.49 778.725 733.781 823.884 674.781 850.076C619.664 874.544 553.434 877.186 498.053 846.576C448.908 819.413 438.225 756.139 412.251 704.969C387.379 655.971 343.889 611.423 351.818 558.486C360.268 502.072 403.453 459.17 452.622 435.446Z" fill="url(#paint0_linear_578_1269)" style="mix-blend-mode:overlay"/>
<path fill-rule="evenodd" clip-rule="evenodd" d="M883.87 551.656C911.961 535.028 955.081 547.965 987.588 537.571C1015.08 528.78 1026.93 497.052 1057.65 496.092C1088.65 495.123 1116.9 523.068 1148.38 532.545C1194.37 546.393 1255.44 528.218 1285.15 564.589C1313.91 599.805 1277.87 640.323 1265.69 676.16C1256.94 701.885 1243.36 724.654 1224.13 744.089C1207.67 760.718 1183.17 767.742 1162.57 780.357C1139.18 794.68 1123.66 818.553 1094.4 823.519C1061.97 829.024 1025.71 822.134 991.838 809.334C953.817 794.966 918.001 774.008 889.215 745.978C856.626 714.245 817.725 677.621 816.656 638.755C815.58 599.656 850.333 571.508 883.87 551.656Z" fill="#F64CFA"/>
<path d="M1203.5 939.684C1168.66 578.939 1346.48 434.918 1439.74 408L1436.38 1044.69C1373.27 1160 1238.33 1300.43 1203.5 939.684Z" fill="#FF5B15" fill-opacity="0.58"/>
<path fill-rule="evenodd" clip-rule="evenodd" d="M779.586 427.221C852.567 430.057 910.009 481.063 935.591 549.503C965.95 630.723 983.166 733.021 912.833 783.697C842.989 834.02 754.559 781.165 685.616 729.613C620.638 681.026 557.133 613.231 581.217 535.732C605.952 456.134 696.331 423.985 779.586 427.221Z" fill="#FF9800" style="mix-blend-mode:overlay"/>
<path fill-rule="evenodd" clip-rule="evenodd" d="M1031.55 394.394C1094.25 406.762 1172.85 371.684 1216.25 428.818C1259.72 486.026 1257.76 589.578 1248.27 679.658C1239.99 758.275 1200.5 826.945 1166.94 897.18C1138.44 956.82 1110.27 1017.39 1067.46 1058.06C1025.64 1097.8 975.45 1093.39 930.021 1122.29C853.877 1170.73 775.753 1334.52 711.593 1284.46C646.476 1233.65 750.003 1057.44 722.515 960.39C697.213 871.057 577.572 880.539 569.314 782.113C561.575 689.882 635.529 604.398 686.276 528.499C734.417 456.498 787.726 382.743 853.388 357.24C916.436 332.752 970.791 382.409 1031.55 394.394Z" fill="#5EA5DD" style="mix-blend-mode:overlay"/>
</g>
<defs>
<filter id="filter0_f_578_1269" x="-48" y="-54" width="1856.5" height="1697.86" filterUnits="userSpaceOnUse" color-interpolation-filters="sRGB">
<feFlood flood-opacity="0" result="BackgroundImageFix"/>
<feBlend mode="normal" in="SourceGraphic" in2="BackgroundImageFix" result="shape"/>
<feGaussianBlur stdDeviation="175" result="effect1_foregroundBlur_578_1269"/>
</filter>
<linearGradient id="paint0_linear_578_1269" x1="596" y1="559.5" x2="225" y2="765" gradientUnits="userSpaceOnUse">
<stop stop-color="#9CE4BD"/>
<stop offset="1" stop-color="#9CE4BD" stop-opacity="0"/>
</linearGradient>
</defs>
</svg>
