<svg width="24" height="24" viewBox="0 0 24 24" fill="none" xmlns="http://www.w3.org/2000/svg">
<path fill-rule="evenodd" clip-rule="evenodd" d="M24 0H0V24H24V0ZM5.3869 7.4533C6.53676 7.4533 7.4689 6.52116 7.4689 5.3713C7.4689 4.22145 6.53676 3.28931 5.3869 3.28931C4.23705 3.28931 3.30491 4.22145 3.30491 5.3713C3.30491 6.52116 4.23705 7.4533 5.3869 7.4533ZM9.37565 8.99195H12.8262V10.5727C12.8262 10.5727 13.7625 8.69996 16.3102 8.69996C18.5828 8.69996 20.4655 9.81952 20.4655 13.232V20.428H16.8897V14.104C16.8897 12.0909 15.815 11.8695 14.9961 11.8695C13.2965 11.8695 13.0055 13.3355 13.0055 14.3666V20.428H9.37565V8.99195ZM7.20184 8.99196H3.57198V20.428H7.20184V8.99196Z" fill="#334155"/>
</svg>
