<svg width="24" height="24" viewBox="0 0 24 24" fill="none" xmlns="http://www.w3.org/2000/svg">
<path fill-rule="evenodd" clip-rule="evenodd" d="M24 0H0V24H24V0ZM7.43821 10.1671C9.89992 9.41991 14.1536 9.56072 16.7323 11.0922C17.087 11.3033 17.5466 11.1861 17.7575 10.8305C17.9683 10.4755 17.8516 10.0163 17.4961 9.80528C14.5274 8.04304 9.82971 7.8773 7.00384 8.73516C6.60825 8.85533 6.38528 9.27308 6.50508 9.66858C6.62487 10.0639 7.04291 10.287 7.43821 10.1671ZM15.7899 13.5658C16.0831 13.7461 16.4669 13.654 16.6479 13.3604C16.8281 13.0676 16.7358 12.6835 16.4427 12.5029C13.9734 10.9856 10.3613 10.5585 7.4557 11.4402C7.1265 11.5405 6.94041 11.8882 7.03985 12.2181C7.13997 12.5473 7.48837 12.7333 7.81823 12.6335C10.3617 11.8616 13.64 12.2443 15.7899 13.5658ZM14.9833 15.7047C15.2183 15.8484 15.5252 15.7746 15.669 15.5388C15.8126 15.3038 15.7386 14.9967 15.5035 14.8531C13.3949 13.5646 10.7808 13.2648 7.7335 13.9614C7.46448 14.0226 7.29702 14.2901 7.35845 14.5584C7.41968 14.8267 7.68707 14.9948 7.95541 14.9333C10.7401 14.2973 13.1047 14.5566 14.9833 15.7047ZM4 11.9999C4 7.58173 7.58179 4.00003 12 4.00003C16.4184 4.00003 20 7.58173 20 11.9999C20 16.4185 16.4184 19.9999 12 19.9999C7.58179 19.9999 4 16.4185 4 11.9999Z" fill="#334155"/>
</svg>
