<svg width="1158" height="933" viewBox="0 0 1158 933" fill="none" xmlns="http://www.w3.org/2000/svg">
<g opacity="0.3" filter="url(#filter0_f_1_875)">
<path fill-rule="evenodd" clip-rule="evenodd" d="M433.581 653.88C396.116 647.012 346.547 679.691 323.111 635.29C299.645 590.832 306.167 506.207 316.568 432.191C325.646 367.593 353.181 309.508 377.191 250.452C397.579 200.303 417.818 149.413 445.926 114.009C473.389 79.4175 503.658 80.439 532.753 54.5096C581.519 11.0491 637.426 -126.664 673.838 -89.1071C710.793 -50.9901 638.809 98.1714 650.517 175.976C661.293 247.592 734.486 233.693 734.437 313.608C734.392 388.493 685.049 462.077 650.304 526.641C617.343 587.891 581.15 650.837 539.935 675.035C500.361 698.269 469.886 660.535 433.581 653.88Z" fill="#5EA5DD" style="mix-blend-mode:overlay"/>
<path fill-rule="evenodd" clip-rule="evenodd" d="M806.149 624.101C758.762 646.966 702.846 644.544 652.056 624.053C604.029 604.677 572.937 561.189 542.22 517.622C504.323 463.872 448.592 411.321 457.215 347.707C466.281 280.821 524.991 235.663 583.991 209.471C639.107 185.003 705.338 182.361 760.719 212.971C809.863 240.134 820.547 303.408 846.52 354.577C871.392 403.576 914.882 448.123 906.953 501.061C898.503 557.475 855.318 600.376 806.149 624.101Z" fill="url(#paint0_linear_1_875)" style="mix-blend-mode:overlay"/>
<path fill-rule="evenodd" clip-rule="evenodd" d="M458.063 456.411C429.972 473.039 386.852 460.102 354.344 470.496C326.85 479.287 315 511.014 284.286 511.975C253.281 512.944 225.03 484.998 193.555 475.522C147.56 461.673 86.4951 479.849 56.7847 443.477C28.0182 408.261 64.0599 367.744 76.2427 331.907C84.9882 306.182 98.572 283.413 117.807 263.978C134.264 247.349 158.762 240.325 179.365 227.709C202.756 213.387 218.272 189.514 247.529 184.548C279.962 179.043 316.225 185.933 350.094 198.733C388.115 213.101 423.931 234.059 452.718 262.089C485.307 293.822 524.208 330.446 525.277 369.312C526.352 408.41 491.599 436.559 458.063 456.411Z" fill="#F64CFA"/>
<path d="M185.273 -43.3675C220.111 317.378 42.2916 461.399 -50.973 488.317L-47.614 -148.369C15.4992 -263.679 150.435 -404.113 185.273 -43.3675Z" fill="#FF5B15" fill-opacity="0.58"/>
<path fill-rule="evenodd" clip-rule="evenodd" d="M490.185 591.326C417.204 588.49 359.763 537.483 334.181 469.044C303.822 387.824 286.606 285.526 356.938 234.85C426.783 184.526 515.212 237.381 584.156 288.934C649.134 337.521 712.638 405.316 688.555 482.815C663.819 562.413 573.44 594.562 490.185 591.326Z" fill="#FF9800" style="mix-blend-mode:overlay"/>
</g>
<defs>
<filter id="filter0_f_1_875" x="-491" y="-524.633" width="1648.91" height="1457.14" filterUnits="userSpaceOnUse" color-interpolation-filters="sRGB">
<feFlood flood-opacity="0" result="BackgroundImageFix"/>
<feBlend mode="normal" in="SourceGraphic" in2="BackgroundImageFix" result="shape"/>
<feGaussianBlur stdDeviation="125" result="effect1_foregroundBlur_1_875"/>
</filter>
<linearGradient id="paint0_linear_1_875" x1="662.771" y1="500.047" x2="1033.77" y2="294.547" gradientUnits="userSpaceOnUse">
<stop stop-color="#9CE4BD"/>
<stop offset="1" stop-color="#9CE4BD" stop-opacity="0"/>
</linearGradient>
</defs>
</svg>
