<svg width="20" height="20" viewBox="0 0 20 20" fill="none" xmlns="http://www.w3.org/2000/svg">
<path d="M17.273 10.3981L17.273 10.3981L11.648 16.0231C11.5424 16.1287 11.3993 16.188 11.25 16.188C11.1007 16.188 10.9576 16.1287 10.852 16.0231C10.7465 15.9175 10.6872 15.7744 10.6872 15.6251C10.6872 15.4758 10.7465 15.3327 10.852 15.2271L15.4106 10.6693L15.5173 10.5626H15.3664H3.125C2.97582 10.5626 2.83274 10.5033 2.72725 10.3979C2.62176 10.2924 2.5625 10.1493 2.5625 10.0001C2.5625 9.85092 2.62176 9.70785 2.72725 9.60236C2.83274 9.49687 2.97582 9.4376 3.125 9.4376H15.3664H15.5173L15.4106 9.33091L10.852 4.77309C10.7465 4.66754 10.6872 4.52438 10.6872 4.3751C10.6872 4.22583 10.7465 4.08266 10.852 3.97711C10.9576 3.87156 11.1007 3.81226 11.25 3.81226C11.3993 3.81226 11.5424 3.87156 11.648 3.97711L17.273 9.60211L17.273 9.60213C17.3253 9.65438 17.3668 9.71641 17.3951 9.7847C17.4234 9.85299 17.438 9.92618 17.438 10.0001C17.438 10.074 17.4234 10.1472 17.3951 10.2155C17.3668 10.2838 17.3253 10.3458 17.273 10.3981Z" fill="#3B82F6" stroke="#3B82F6" stroke-width="0.125"/>
</svg>
