<svg width="1773" height="1491" viewBox="0 0 1773 1491" fill="none" xmlns="http://www.w3.org/2000/svg">
<g opacity="0.6" filter="url(#filter0_f_485_1057)">
<path fill-rule="evenodd" clip-rule="evenodd" d="M613.634 444.094C648.216 428.126 669.91 372.861 714.644 395.655C759.435 418.479 802.851 491.41 836.985 557.904C866.776 615.936 877.727 679.278 892.12 741.382C904.342 794.119 917.113 847.376 914.531 892.507C912.008 936.603 886.677 953.204 877.831 991.159C863.003 1054.78 896.632 1199.55 845.233 1189.83C793.068 1179.96 765.987 1016.56 711.598 959.707C661.536 907.374 609.713 960.897 563.719 895.545C520.619 834.306 518.565 745.734 509.775 672.943C501.436 603.889 494.761 531.587 514.512 488.066C533.478 446.277 580.125 459.567 613.634 444.094Z" fill="#5EA5DD" style="mix-blend-mode:overlay"/>
<path fill-rule="evenodd" clip-rule="evenodd" d="M326.243 683.05C351.808 637.062 398.91 606.833 452.23 594.325C502.649 582.498 553.116 600.136 603.321 618.054C665.261 640.161 741.088 651.013 770.684 707.98C801.801 767.877 779.824 838.609 746.684 894.005C715.725 945.755 663.109 986.067 600.206 992.947C544.388 999.052 499.206 953.485 448.499 926.62C399.943 900.894 338.732 889.532 314.72 841.692C289.131 790.711 299.718 730.766 326.243 683.05Z" fill="url(#paint0_linear_485_1057)" style="mix-blend-mode:overlay"/>
<path fill-rule="evenodd" clip-rule="evenodd" d="M707.373 619.611C720.756 589.838 763.456 575.574 784.041 548.352C801.451 525.328 792.862 492.568 817.415 474.09C842.2 455.438 881.392 462.007 912.578 451.623C958.153 436.448 997.599 386.415 1042.84 399.032C1086.64 411.247 1080.52 465.129 1091.2 501.44C1098.87 527.506 1100.88 553.943 1096.35 580.91C1092.48 603.982 1076.5 623.836 1066.93 646.016C1056.06 671.198 1057.13 699.65 1036.07 720.563C1012.73 743.745 979.12 759.002 944.061 768.049C904.705 778.206 863.356 781.706 823.679 775.375C778.76 768.209 725.865 760.681 702.603 729.526C679.201 698.186 691.395 655.158 707.373 619.611Z" fill="#F64CFA"/>
<path d="M1218.25 871.004C981.968 596.191 1044.36 376.033 1105.09 300.306L1469.1 822.682C1483.93 953.294 1454.53 1145.82 1218.25 871.004Z" fill="#FF5B15" fill-opacity="0.58"/>
<path fill-rule="evenodd" clip-rule="evenodd" d="M603.399 527.833C664.688 488.111 741.025 496.716 801.36 537.924C872.962 586.827 945.962 660.531 917.662 742.468C889.558 823.837 786.827 831.571 700.775 829.145C619.673 826.859 528.71 808.023 503.754 730.8C478.122 651.487 533.481 573.146 603.399 527.833Z" fill="#FF9800" style="mix-blend-mode:overlay"/>
</g>
<defs>
<filter id="filter0_f_485_1057" x="0.0818901" y="-187" width="1990.25" height="1888" filterUnits="userSpaceOnUse" color-interpolation-filters="sRGB">
<feFlood flood-opacity="0" result="BackgroundImageFix"/>
<feBlend mode="normal" in="SourceGraphic" in2="BackgroundImageFix" result="shape"/>
<feGaussianBlur stdDeviation="150" result="effect1_foregroundBlur_485_1057"/>
</filter>
<linearGradient id="paint0_linear_485_1057" x1="514.904" y1="701.863" x2="330.016" y2="1083.55" gradientUnits="userSpaceOnUse">
<stop stop-color="#9CE4BD"/>
<stop offset="1" stop-color="#9CE4BD" stop-opacity="0"/>
</linearGradient>
</defs>
</svg>
